<?xml version="1.0" encoding="UTF-8"?>
<svg xmlns="http://www.w3.org/2000/svg" viewBox="0 0 404.42 373.17">
  <defs>
    <style>.cls-1{fill:#e2761b;stroke:#e2761b;}.cls-1,.cls-2,.cls-3,.cls-4,.cls-5{stroke-linecap:round;stroke-linejoin:round;}.cls-2{fill:#e4761b;stroke:#e4761b;}.cls-3{fill:#d7c1b3;stroke:#d7c1b3;}.cls-4{fill:#233447;stroke:#233447;}.cls-5{fill:#cd6116;stroke:#cd6116;}.cls-6{fill:#e4751f;}.cls-7{fill:#f6851b;}.cls-8{fill:#c0ad9e;}.cls-9{fill:#161616;}.cls-10{fill:#763d16;}</style>
  </defs>
  <g>
    <polygon class="cls-1" points="388.42 1.42 229.7 109.97 256.13 49.13 388.42 1.42"/>
    <polygon class="cls-2" points="14.42 1.42 171.84 111.13 147.21 49.13 14.42 1.42"/>
    <polygon class="cls-2" points="332.34 266.81 290.99 327.36 380.95 350.73 406.39 268.26 332.34 266.81"/>
    <polygon class="cls-2" points="2.91 268.26 28.06 350.73 118.02 327.36 76.96 266.81 2.91 268.26"/>
    <polygon class="cls-2" points="113.93 162.3 91.39 197.89 180.78 201.37 177.88 105.91 113.93 162.3"/>
    <polygon class="cls-2" points="289.37 162.3 224.56 104.76 222.84 201.37 311.94 197.89 289.37 162.3"/>
    <polygon class="cls-2" points="118.02 327.36 175.84 302.73 125.55 269.13 118.02 327.36"/>
    <polygon class="cls-2" points="227.98 302.73 285.52 327.36 278.28 269.13 227.98 302.73"/>
    <polygon class="cls-3" points="285.52 327.36 227.98 302.73 232.32 335.75 231.75 349.57 285.52 327.36"/>
    <polygon class="cls-3" points="118.02 327.36 171.79 349.57 171.51 335.75 175.84 302.73 118.02 327.36"/>
    <polygon class="cls-4" points="172.66 245.95 124.39 233.86 158.84 220.33 172.66 245.95"/>
    <polygon class="cls-4" points="230.88 245.95 244.7 220.33 279.43 233.86 230.88 245.95"/>
    <polygon class="cls-5" points="118.02 327.36 126.12 266.81 76.96 268.26 118.02 327.36"/>
    <polygon class="cls-5" points="277.42 266.81 285.52 327.36 326.58 268.26 277.42 266.81"/>
    <polygon class="cls-5" points="311.94 197.89 222.84 201.37 230.88 245.95 244.7 220.33 279.43 233.86 311.94 197.89"/>
    <polygon class="cls-5" points="124.39 233.86 158.84 220.33 172.66 245.95 180.78 201.37 91.39 197.89 124.39 233.86"/>
    <polygon class="cls-6" points="91.39 197.89 125.55 269.13 124.39 233.86 91.39 197.89"/>
    <polygon class="cls-6" points="279.43 233.86 278.28 269.13 311.94 197.89 279.43 233.86"/>
    <polygon class="cls-6" points="180.78 201.37 172.66 245.95 183.1 297.39 185.11 229.8 180.78 201.37"/>
    <polygon class="cls-6" points="222.84 201.37 218.8 229.51 220.24 297.39 230.88 245.95 222.84 201.37"/>
    <polygon class="cls-7" points="230.88 245.95 220.24 297.39 227.98 302.73 278.28 269.13 279.43 233.86 230.88 245.95"/>
    <polygon class="cls-7" points="124.39 233.86 125.55 269.13 175.84 302.73 183.1 297.39 172.66 245.95 124.39 233.86"/>
    <polygon class="cls-8" points="231.75 349.57 232.32 335.75 228.26 332.26 175.84 332.26 171.51 335.75 171.79 349.57 118.02 327.36 134.23 341.17 175.27 369.17 228.84 369.17 270.17 341.17 285.52 327.36 231.75 349.57"/>
    <polygon class="cls-9" points="227.98 302.73 220.24 297.39 183.1 297.39 175.84 302.73 171.51 335.75 175.84 332.26 228.26 332.26 232.32 335.75 227.98 302.73"/>
    <polygon class="cls-10" points="304.99 116.56 315.42 61.22 298.06 9.81 227.98 106.48 289.37 162.3 379.51 184.78 399.51 135.13 391.33 128.94 378.36 137.98 360.08 125.59 373.33 118.59 362.61 113.26 380.95 105.62 304.99 116.56"/>
    <polygon class="cls-10" points="87.92 61.22 98.35 116.56 21.82 105.62 40.16 113.26 29.73 118.59 42.7 125.59 24.42 137.98 11.73 128.94 3.27 135.13 23.27 184.78 113.4 162.3 174.79 106.48 104.71 9.81 87.92 61.22"/>
    <polygon class="cls-6" points="379.51 184.78 289.37 162.3 311.94 197.89 278.28 269.13 326.58 268.26 406.39 268.26 379.51 184.78"/>
    <polygon class="cls-6" points="113.4 162.3 23.27 184.78 -3.47 268.26 76.96 268.26 124.97 269.13 91.39 197.89 113.4 162.3"/>
    <polygon class="cls-6" points="222.84 201.37 227.98 106.48 256.13 49.13 147.21 49.13 174.79 106.48 180.78 201.37 183.1 230.09 183.38 297.39 220.24 297.39 220.81 230.09 222.84 201.37"/>
  </g>
</svg>
